# xmcd
#
# Track frame offsets: 
#        150
#        24338
#        50781
#        77333
#        121732
#        143991
#        190960
#        230313
#        269409
#        300771
#
# Disc length: 4672 seconds
#
# Revision: 1
# Processed by: cddbd v1.5.2PL0 Copyright (c) Steve Scherf et al.
# Submitted via: ExactAudioCopy v1.0b1
#
DISCID=77123e0a
DTITLE=Various Artist - Veros Artis Volume 1
DYEAR=2008
DGENRE=House, Electro, Disco
TTITLE0=Gatto Fritto - Clem's Bounce
TTITLE1=Helium Robots - Metallic Dawn
TTITLE2=Gweilo - Acolyte
TTITLE3=Invisible Scum - House Of The Rising Scum
TTITLE4=Kruton - Hollow Demon
TTITLE5=Control Voltage - 2
TTITLE6=S.C.S. - Model Specific
TTITLE7=Ali Renault - Our World Is
TTITLE8=Sebastian Muravchik - Tropical Warrior
TTITLE9=Binary Chaffinch - False Energy
EXTD=
EXTT0=
EXTT1=
EXTT2=
EXTT3=
EXTT4=
EXTT5=
EXTT6=
EXTT7=
EXTT8=
EXTT9=
PLAYORDER=
